<svg width="15" height="13" viewBox="0 0 15 13" fill="none" xmlns="http://www.w3.org/2000/svg">
<path d="M10.9092 1.32812H4.30307C2.47889 1.32812 1 2.55247 1 4.06267V9.53176C1 11.042 2.47889 12.2663 4.30307 12.2663H10.9092C12.7334 12.2663 14.2123 11.042 14.2123 9.53176V4.06267C14.2123 2.55247 12.7334 1.32812 10.9092 1.32812Z" fill="white" stroke="white" stroke-linecap="round" stroke-linejoin="round"/>
<path d="M10.4336 6.42315C10.5151 6.87574 10.4213 7.33813 10.1654 7.7443C9.90905 8.15084 9.50432 8.48013 9.00754 8.68576C8.51119 8.89174 7.94877 8.96319 7.40001 8.89066C6.85126 8.81776 6.34435 8.60452 5.95106 8.28103C5.55821 7.95718 5.29924 7.53977 5.21071 7.0879C5.12263 6.63603 5.20939 6.17292 5.45955 5.76421C5.70926 5.35514 6.10916 5.02186 6.60287 4.81079C7.09613 4.60009 7.65766 4.52284 8.2073 4.58993C8.76794 4.65848 9.28718 4.87352 9.6884 5.20354C10.0892 5.53392 10.3503 5.96149 10.4336 6.42315Z" stroke="black" stroke-linecap="round" stroke-linejoin="round"/>
<path d="M11.4248 3.7876H11.432" stroke="black" stroke-width="2" stroke-linecap="round" stroke-linejoin="round"/>
</svg>
